{"title":"Summer days With Coo 2007 Audio-Jap+Thai Subs-Eng+Thai FLIpresen","uid":7396559,"size":8112832558,"categoryP":"video","categoryS":"movies_dvdr","magnet":"?xt=urn:btih:8126737bce8121b25b2c49487b2e55a4bba4e9b9&amp;dn=Summer+days+With+Coo+2007+Audio-Jap%2BThai+Subs-Eng%2BThai+FLIpresen&amp;tr=udp%3A%2F%2Ftracker.openbittorrent.com%3A80&amp;tr=udp%3A%2F%2Fopen.demonii.com%3A1337&amp;tr=udp%3A%2F%2Ftracker.coppersurfer.tk%3A6969&amp;tr=udp%3A%2F%2Fexodus.desync.com%3A6969","seeders":0,"leechers":1,"uploader":"kaminer2","files":36,"time":1340932427,"description":"Kappa no ku to natsu yasumi / Summer days with Coo - Keiichi Hara - 2007 &lt;a href=&quot;\nhttp://www.imdb.com/title/tt1179773/&quot; rel=&quot;nofollow&quot; target=&quot;_NEW&quot;&gt;\nhttp://www.imdb.com/title/tt1179773/&lt;/a&gt;\n\nOriginal DVD full rip\nAudio - Thai+Jap\nSubs - Eng+Thai\nPAL\n(technical details way bellow)\nGenre: Animation / Family / Fantasy\n\nMagnificent independent anime movie. The closest thing i've seen in years to the best Miyazaki. \n\nReview and plot: http://twitchfilm.com/reviews/2009/09/camera-japan-festival-summer-days-with-coo-review.php\n\nAsia Pacific Screen Awards\n2007 Nominated for Best Animated Feature Film\nYutaka Sugiyama\n\nAwards of the Japanese Academy\n2008 Nominated for Best Animation Film\n\nMainichi Film Concours\n2008 Won Best Animation Film\n\n=================================================================================\n\nOn peut violer les lois sans qu'elles crient. (Talleyrand)\n\n=================================================================================\n\n\nGeneral\nComplete name : E:VIDEO_TSVTS_01_2.VOB\nFormat : MPEG-PS\nFile size : 1 024 MiB\nDuration : 18mn 52s\nOverall bit rate : 7 584 Kbps\n\nVideo\nID : 224 (0xE0)\nFormat : MPEG Video\nFormat version : Version 2\nFormat profile : Main@Main\nFormat settings, BVOP : Yes\nFormat settings, Matrix : Default\nFormat settings, GOP : M=3, N=13\nDuration : 18mn 52s\nBit rate : 6 800 Kbps\nWidth : 720 pixels\nHeight : 576 pixels\nDisplay aspect ratio : 2.40:1\nFrame rate : 25.000 fps\nStandard : PAL\nColor space : YUV\nChroma subsampling : 4:2:0\nBit depth : 8 bits\nScan type : Interlaced\nScan order : Top Field First\nCompression mode : Lossy\nBits/(Pixel*Frame) : 0.656\nStream size : 917 MiB (90%)\nColor primaries : BT.470-2 System B, BT.470-2 System G\nTransfer characteristics : BT.470-2 System B, BT.470-2 System G\nMatrix coefficients : BT.470-2 System B, BT.470-2 System G\n\nAudio #1\nID : 189 (0xBD)-128 (0x80)\nFormat : AC-3\nFormat/Info : Audio Coding 3\nMode extension : CM (complete main)\nFormat settings, Endianness : Big\nMuxing mode : DVD-Video\nDuration : 18mn 52s\nBit rate mode : Constant\nBit rate : 192 Kbps\nChannel(s) : 2 channels\nChannel positions : Front: L R\nSampling rate : 48.0 KHz\nBit depth : 16 bits\nCompression mode : Lossy\nDelay relative to video : -168ms\nStream size : 25.9 MiB (3%)\n\nAudio #2\nID : 189 (0xBD)-129 (0x81)\nFormat : AC-3\nFormat/Info : Audio Coding 3\nMode extension : CM (complete main)\nFormat settings, Endianness : Big\nMuxing mode : DVD-Video\nDuration : 18mn 52s\nBit rate mode : Constant\nBit rate : 448 Kbps\nChannel(s) : 6 channels\nChannel positions : Front: L C R, Side: L R, LFE\nSampling rate : 48.0 KHz\nBit depth : 16 bits\nCompression mode : Lossy\nDelay relative to video : -200ms\nStream size : 60.5 MiB (6%)\n\nText #1\nID : 189 (0xBD)-32 (0x20)\nFormat : RLE\nFormat/Info : Run-length encoding\nMuxing mode : DVD-Video\n\nText #2\nID : 189 (0xBD)-33 (0x21)\nFormat : RLE\nFormat/Info : Run-length encoding\nMuxing mode : DVD-Video\n\nMenu","torrent":{"xt":"urn:btih:8126737bce8121b25b2c49487b2e55a4bba4e9b9","amp;dn":"Summer+days+With+Coo+2007+Audio-Jap%2BThai+Subs-Eng%2BThai+FLIpresen","amp;tr":["udp%3A%2F%2Ftracker.openbittorrent.com%3A80","udp%3A%2F%2Fopen.demonii.com%3A1337","udp%3A%2F%2Ftracker.coppersurfer.tk%3A6969","udp%3A%2F%2Fexodus.desync.com%3A6969"],"infoHash":"8126737bce8121b25b2c49487b2e55a4bba4e9b9","infoHashBuffer":{"type":"Buffer","data":[129,38,115,123,206,129,33,178,91,44,73,72,123,46,85,164,187,164,233,185]},"announce":[],"urlList":[]}}